<?xml version="1.0" encoding="UTF-8"?>
<svg xmlns="http://www.w3.org/2000/svg" version="1.1" viewBox="0 0 32 32">
  <defs>
    <style>
      .cls-1 {
        fill: #f6f6f6;
      }
    </style>
  </defs>
  <!-- Generator: Adobe Illustrator 28.7.1, SVG Export Plug-In . SVG Version: 1.2.0 Build 142)  -->
  <g>
    <g id="Layer_1">
      <path class="cls-1" d="M25.2,0H6.8C3,0,0,3,0,6.8v18.4c0,3.8,3,6.8,6.8,6.8h18.4c3.8,0,6.8-3,6.8-6.8V6.8c0-3.8-3-6.8-6.8-6.8ZM25.6,18.7l-8.7,8.7-3.1-3.1,2.1-2.1,1,1,6.5-6.6c.8-.8.8-2.1,0-2.9s-2.1-.8-2.9,0l-8.7,8.7-2.1-2.1,8.7-8.7c.8-.8.8-2.1,0-2.9s-2.1-.8-2.9,0l-8.7,8.7-2.1-2.1L13.3,6.4c2-2,5.2-2,7.2,0,1,1,1.5,2.3,1.5,3.6,1.3,0,2.6.5,3.6,1.5,2,2,2,5.2,0,7.2Z"/>
    </g>
  </g>
</svg>