<?xml version="1.0" encoding="UTF-8"?>
<svg xmlns="http://www.w3.org/2000/svg" version="1.1" viewBox="0 0 16 16">
  <defs>
    <style>
      .cls-1 {
        fill: #f6f6f6;
      }
    </style>
  </defs>
  <!-- Generator: Adobe Illustrator 28.7.1, SVG Export Plug-In . SVG Version: 1.2.0 Build 142)  -->
  <g>
    <g id="Layer_1">
      <path class="cls-1" d="M12.6,0H3.4C1.5,0,0,1.5,0,3.4v9.2c0,1.9,1.5,3.4,3.4,3.4h9.2c1.9,0,3.4-1.5,3.4-3.4V3.4c0-1.9-1.5-3.4-3.4-3.4ZM12.8,9.3l-4.3,4.3-1.6-1.6,1.1-1.1.5.5,3.3-3.3c.4-.4.4-1.1,0-1.5s-1.1-.4-1.5,0l-4.3,4.3-1.1-1.1,4.3-4.4c.4-.4.4-1.1,0-1.5s-1.1-.4-1.5,0l-4.3,4.3-1.1-1.1L6.6,3.2c1-1,2.6-1,3.6,0,.5.5.8,1.1.8,1.8.7,0,1.3.3,1.8.8,1,1,1,2.6,0,3.6Z"/>
    </g>
  </g>
</svg>