<?xml version="1.0" encoding="UTF-8"?>
<svg xmlns="http://www.w3.org/2000/svg" version="1.1" viewBox="0 0 32 32">
  <defs>
    <style>
      .cls-1 {
        fill: #d11038;
      }
    </style>
  </defs>
  <!-- Generator: Adobe Illustrator 28.7.1, SVG Export Plug-In . SVG Version: 1.2.0 Build 142)  -->
  <g>
    <g id="Layer_1">
      <path class="cls-1" d="M28.6,19.3l-11.2,11.2-4-4,2.7-2.7,1.3,1.3,8.4-8.5c1.1-1.1,1.1-2.7,0-3.8s-2.7-1.1-3.8,0l-11.2,11.2-2.7-2.7,11.2-11.3c1.1-1.1,1.1-2.7,0-3.8s-2.7-1.1-3.8,0l-11.2,11.2-2.7-2.7L12.7,3.4c2.6-2.6,6.7-2.6,9.3,0,1.3,1.3,1.9,3,1.9,4.6,1.7,0,3.4.7,4.6,1.9,2.6,2.6,2.6,6.7,0,9.3Z"/>
    </g>
  </g>
</svg>