<?xml version="1.0" encoding="UTF-8"?>
<svg xmlns="http://www.w3.org/2000/svg" version="1.1" viewBox="0 0 16 16">
  <defs>
    <style>
      .cls-1 {
        fill: #d11038;
      }
    </style>
  </defs>
  <!-- Generator: Adobe Illustrator 28.7.1, SVG Export Plug-In . SVG Version: 1.2.0 Build 142)  -->
  <g>
    <g id="Layer_1">
      <path class="cls-1" d="M14.6,9.7l-5.9,5.9-2.1-2.1,1.4-1.4.7.7,4.4-4.4c.5-.5.5-1.4,0-2s-1.4-.5-2,0l-5.9,5.9-1.4-1.4,5.8-5.9c.5-.5.5-1.4,0-2s-1.4-.5-2,0L1.9,8.7l-1.4-1.4L6.3,1.4C7.6.1,9.8.1,11.1,1.4c.7.7,1,1.5,1,2.4.9,0,1.8.4,2.4,1,1.3,1.3,1.3,3.5,0,4.8Z"/>
    </g>
  </g>
</svg>