<?xml version="1.0" encoding="UTF-8"?>
<svg xmlns="http://www.w3.org/2000/svg" version="1.1" viewBox="0 0 130 152">
  <defs>
    <style>
      .cls-1 {
        fill: #d11038;
      }

      .cls-2 {
        fill: #fff;
      }
    </style>
  </defs>
  <!-- Generator: Adobe Illustrator 28.7.1, SVG Export Plug-In . SVG Version: 1.2.0 Build 142)  -->
  <g>
    <g id="Layer_1">
      <rect class="cls-2" x="24.1" y="19.6" width="80.8" height="81.2"/>
      <g>
        <path class="cls-1" d="M38.7,138v-8.3c0-.7-.2-1.4-.7-1.9-.5-.5-1.2-.8-2.1-.8-1.9,0-2.8.9-2.8,2.7v8.3h-1.2v-8.3c0-.8-.3-1.5-.8-1.9-.6-.5-1.2-.8-2-.8s-1.5.3-2,.8c-.5.5-.8,1.1-.8,2v8.3h-1.2v-12h1.2v1.2c.6-.9,1.5-1.4,2.8-1.4s2.7.6,3.4,1.9c.7-1.3,1.8-1.9,3.4-1.9s2.2.3,2.9,1,1.1,1.7,1.1,2.9v8.3h-1.2Z"/>
        <path class="cls-1" d="M51.3,137c-.8.9-1.9,1.3-3.3,1.3s-2.5-.4-3.3-1.2-1.2-2-1.2-3.5v-7.6h1.2v7.5c0,1.1.3,2,.8,2.6s1.4.9,2.5.9c2.2,0,3.3-1.2,3.3-3.6v-7.4h1.2v7.5c0,1.5-.4,2.6-1.2,3.5Z"/>
        <path class="cls-1" d="M56.4,131.8c0,1.6.4,2.9,1.3,3.9.9,1,2.2,1.5,3.7,1.5s1.5-.1,2.2-.4c.8-.3,1.6-1.1,2.2-2.1l1.1.5c-.8,1.4-1.9,2.4-3.5,2.9-.6.2-1.3.3-2,.3-1.8,0-3.3-.6-4.4-1.8-1.2-1.2-1.8-2.7-1.8-4.4s.6-3.3,1.7-4.4c1.2-1.2,2.7-1.8,4.5-1.8s3.2.6,4.4,1.7c1.2,1.1,1.8,2.5,1.8,4.3h-11.2v-.2ZM64.6,128c-.9-.7-2-1-3.1-1-2.5,0-4.1,1.2-4.9,3.7h9.7c-.2-1.2-.8-2.1-1.7-2.7Z"/>
        <path class="cls-1" d="M80.5,136.4c-1.2,1.2-2.7,1.8-4.4,1.8s-3.6-.8-4.9-2.4v2.2h-1.2v-21.5h1.2v11.7c1.3-1.6,2.9-2.4,4.9-2.4s3.2.6,4.4,1.8c1.2,1.2,1.8,2.7,1.8,4.4s-.6,3.2-1.8,4.4ZM79.7,128.5c-1-1-2.2-1.5-3.5-1.5s-2.6.5-3.5,1.5c-1,1-1.5,2.2-1.5,3.6s.5,2.6,1.5,3.5c1,1,2.2,1.5,3.5,1.5s2.6-.5,3.5-1.5c1-1,1.5-2.2,1.5-3.6s-.5-2.5-1.5-3.5Z"/>
        <path class="cls-1" d="M95,136.4c-1.2,1.2-2.7,1.8-4.4,1.8s-3.2-.6-4.4-1.8c-1.2-1.2-1.8-2.7-1.8-4.4s.6-3.2,1.8-4.4,2.6-1.8,4.4-1.8,3.2.6,4.4,1.8c1.2,1.2,1.8,2.7,1.8,4.4s-.6,3.2-1.8,4.4ZM94.2,128.5c-1-1-2.2-1.5-3.6-1.5s-2.5.5-3.5,1.5-1.5,2.2-1.5,3.5.5,2.6,1.5,3.5c1,1,2.2,1.5,3.5,1.5s2.6-.5,3.5-1.5c1-1,1.5-2.2,1.5-3.6,0-1.3-.4-2.5-1.4-3.4Z"/>
        <path class="cls-1" d="M105,138l-3.4-5-3.4,5h-1.4l4.1-6-4-5.9h1.4l3.3,5,3.3-5h1.4l-4,5.9,4.1,6.1h-1.4Z"/>
      </g>
      <path class="cls-1" d="M92.2,11h-56.4c-11.5,0-20.8,9.3-20.8,20.8v56.4c0,11.5,9.3,20.8,20.8,20.8h56.4c11.5,0,20.8-9.3,20.8-20.8V31.8c0-11.5-9.3-20.8-20.8-20.8ZM89.1,26h4.1v.6h-1.7v4.4h-.7v-4.4h-1.7v-.6ZM93.4,68.2l-26.6,26.6-9.5-9.5,6.5-6.5,3,3,20-20.1c2.5-2.5,2.5-6.5,0-9s-6.5-2.5-9,0l-26.6,26.6-6.5-6.5,26.5-26.7c2.5-2.5,2.5-6.5,0-9s-6.5-2.5-9,0l-26.6,26.6-6.5-6.5,26.6-26.6c6.1-6.1,16-6.1,22.1,0,3.1,3,4.6,7,4.6,11,4,0,8,1.6,11,4.6,6.1,6.1,6.1,16,0,22ZM98.6,31h-.6v-4.3l-1.5,4.3h-.7l-1.4-4.2v4.4h-.6v-5.2h1l1.4,4.2,1.4-4.2h1v5Z"/>
    </g>
  </g>
</svg>